<?xml version="1.0" standalone="no"?>
<!DOCTYPE svg PUBLIC "-//W3C//DTD SVG 20010904//EN"
 "http://www.w3.org/TR/2001/REC-SVG-20010904/DTD/svg10.dtd">
<svg version="1.0" xmlns="http://www.w3.org/2000/svg"
 width="100.000000pt" height="100.000000pt" viewBox="0 0 100.000000 100.000000"
 preserveAspectRatio="xMidYMid meet">

<g transform="translate(0.000000,100.000000) scale(0.100000,-0.100000)"
fill="#000000" stroke="none">
<path d="M270 725 l-24 -26 99 -99 100 -100 -100 -100 -100 -100 28 -27 27
-28 100 100 100 100 100 -100 100 -100 27 28 28 27 -100 100 -100 100 100 100
100 100 -28 27 -27 28 -100 -100 -100 -100 -98 98 c-53 53 -100 97 -103 97 -3
0 -16 -11 -29 -25z"/>
</g>
</svg>
